<?xml version="1.0" encoding="utf-8"?>
<!-- Generator: Adobe Illustrator 18.1.1, SVG Export Plug-In . SVG Version: 6.00 Build 0)  -->
<!DOCTYPE svg PUBLIC "-//W3C//DTD SVG 1.1//EN" "http://www.w3.org/Graphics/SVG/1.1/DTD/svg11.dtd">
<svg version="1.1" id="Layer_1" xmlns="http://www.w3.org/2000/svg" xmlns:xlink="http://www.w3.org/1999/xlink" x="0px" y="0px"
	 viewBox="0 0 378.07 77.07" enable-background="new 0 0 378.07 77.07" xml:space="preserve">
<g>
	<path d="M22.71,42.83H2.68V0.72h19.55c8.6,0,13.89,4.27,13.89,10.89v0.12c0,4.75-2.53,7.4-5.53,9.08
		c4.87,1.86,7.88,4.69,7.88,10.35v0.12C38.47,38.98,32.22,42.83,22.71,42.83z M26.92,13.17c0-2.77-2.17-4.33-6.08-4.33H11.7v8.9
		h8.54c4.09,0,6.68-1.32,6.68-4.45V13.17z M29.27,30.02c0-2.83-2.11-4.57-6.86-4.57H11.7v9.26h11.01c4.09,0,6.56-1.44,6.56-4.57
		V30.02z"/>
	<path d="M45.98,42.83V0.72h9.26v33.68h20.99v8.42H45.98z"/>
	<path d="M115.16,42.83l-3.85-9.44h-17.8l-3.85,9.44h-9.44L98.26,0.42h8.54l18.05,42.41H115.16z M102.41,11.55L96.82,25.2H108
		L102.41,11.55z"/>
	<path d="M147.56,43.55c-12.39,0-21.59-9.56-21.59-21.65v-0.12C125.96,9.8,134.99,0,147.92,0c7.94,0,12.69,2.65,16.6,6.5l-5.89,6.8
		c-3.25-2.95-6.56-4.75-10.77-4.75c-7.1,0-12.21,5.9-12.21,13.11v0.12c0,7.22,4.99,13.23,12.21,13.23c4.81,0,7.76-1.92,11.07-4.93
		l5.89,5.96C160.49,40.66,155.68,43.55,147.56,43.55z"/>
	<path d="M198.21,42.83L185.16,24.9l-4.87,5.05v12.87h-9.26V0.72h9.26v18.41l17.08-18.41h11.19l-17.14,17.86l17.92,24.24H198.21z"/>
	<path d="M253.01,42.83h-20.03V0.72h19.55c8.6,0,13.89,4.27,13.89,10.89v0.12c0,4.75-2.53,7.4-5.53,9.08
		c4.87,1.86,7.88,4.69,7.88,10.35v0.12C268.76,38.98,262.51,42.83,253.01,42.83z M257.22,13.17c0-2.77-2.17-4.33-6.08-4.33H242v8.9
		h8.54c4.09,0,6.68-1.32,6.68-4.45V13.17z M259.56,30.02c0-2.83-2.11-4.57-6.86-4.57H242v9.26h11.01c4.09,0,6.56-1.44,6.56-4.57
		V30.02z"/>
	<path d="M276.43,42.83V0.72h9.26v42.1H276.43z"/>
	<path d="M321.15,42.83l-9.02-13.47h-7.28v13.47h-9.26V0.72h19.25c9.92,0,15.88,5.23,15.88,13.89v0.12c0,6.8-3.67,11.07-9.02,13.05
		l10.29,15.04H321.15z M321.33,15.1c0-3.97-2.77-6.02-7.28-6.02h-9.2v12.09h9.38c4.51,0,7.1-2.41,7.1-5.95V15.1z"/>
	<path d="M355.11,42.83h-16.42V0.72h16.42c13.23,0,22.38,9.08,22.38,20.93v0.12C377.49,33.62,368.35,42.83,355.11,42.83z
		 M367.81,21.77c0-7.46-5.11-12.69-12.69-12.69h-7.16v25.38h7.16c7.58,0,12.69-5.11,12.69-12.57V21.77z"/>
</g>
<g>
	<path d="M135.93,77.07c-4.24,0-7.37-3.34-7.37-7.58c0-4.2,3.11-7.62,7.43-7.62c2.67,0,4.26,0.94,5.73,2.33l-1.13,1.22
		c-1.24-1.18-2.62-2.02-4.62-2.02c-3.25,0-5.69,2.62-5.69,6.05s2.46,6.09,5.69,6.09c2.02,0,3.34-0.78,4.75-2.12l1.09,1.07
		C140.28,76.04,138.6,77.07,135.93,77.07z"/>
	<path d="M146.3,62.12h1.66v13.16h8.27v1.53h-9.93V62.12z"/>
	<path d="M166.71,77.07c-4.47,0-7.47-3.51-7.47-7.58s3.04-7.62,7.52-7.62s7.47,3.51,7.47,7.58S171.18,77.07,166.71,77.07z
		 M166.71,63.4c-3.36,0-5.75,2.69-5.75,6.05s2.44,6.09,5.79,6.09s5.75-2.69,5.75-6.05S170.07,63.4,166.71,63.4z"/>
	<path d="M183.84,76.82h-1.68V63.65h-4.93v-1.53h11.55v1.53h-4.93V76.82z"/>
	<path d="M194.9,70.2v6.61h-1.66v-14.7h1.66v6.53h8.48v-6.53h1.66v14.7h-1.66V70.2H194.9z"/>
	<path d="M212.66,62.12v14.7H211v-14.7H212.66z"/>
	<path d="M229.38,62.12H231v14.7h-1.32l-9.49-12.05v12.05h-1.62v-14.7h1.55l9.26,11.78V62.12z"/>
	<path d="M243.61,77.07c-4.62,0-7.47-3.36-7.47-7.58c0-4.05,2.96-7.62,7.37-7.62c2.48,0,4.01,0.71,5.48,1.95l-1.07,1.26
		c-1.13-0.99-2.39-1.68-4.47-1.68c-3.25,0-5.58,2.75-5.58,6.05c0,3.53,2.25,6.13,5.82,6.13c1.68,0,3.23-0.65,4.24-1.47v-3.65h-4.47
		v-1.49h6.07v5.86C248.15,76.04,246.09,77.07,243.61,77.07z"/>
</g>
<g>
	<rect x="0" y="68.63" width="112.65" height="1.68"/>
	<rect x="265.42" y="68.63" width="112.65" height="1.68"/>
</g>
</svg>
